{
    "accessors": {
        "accessor_21": {
            "bufferView": "bufferView_30",
            "byteOffset": 0,
            "byteStride": 0,
            "componentType": 5123,
            "count": 75,
            "type": "SCALAR"
        },
        "accessor_24": {
            "bufferView": "bufferView_30",
            "byteOffset": 150,
            "byteStride": 0,
            "componentType": 5123,
            "count": 21,
            "type": "SCALAR"
        },
        "accessor_26": {
            "bufferView": "bufferView_31",
            "byteOffset": 0,
            "byteStride": 12,
            "componentType": 5126,
            "count": 54,
            "max": [
                43.3997,
                17.4233,
                22.0732
            ],
            "min": [
                0,
                -10.5841,
                0
            ],
            "type": "VEC3"
        },
        "accessor_28": {
            "bufferView": "bufferView_31",
            "byteOffset": 648,
            "byteStride": 8,
            "componentType": 5126,
            "count": 54,
            "max": [
                0.883777,
                1
            ],
            "min": [
                0,
                3.70741e-005
            ],
            "type": "VEC2"
        }
    },
    "animations": {},
    "asset": {
        "generator": "collada2gltf@cf6371beb0bdc18ba603378d5e40c966da53d385",
        "premultipliedAlpha": true,
        "profile": {
            "api": "WebGL",
            "version": "1.0.2"
        },
        "version": "1.0"
    },
    "bufferViews": {
        "bufferView_30": {
            "buffer": "BLDG_00030009003f3f78",
            "byteLength": 192,
            "byteOffset": 0,
            "target": 34963
        },
        "bufferView_31": {
            "buffer": "BLDG_00030009003f3f78",
            "byteLength": 1080,
            "byteOffset": 192,
            "target": 34962
        }
    },
    "buffers": {
        "BLDG_00030009003f3f78": {
            "byteLength": 1272,
            "type": "arraybuffer",
            "uri": "data:application/octet-stream;base64,"
        }
    },
    "images": {
        "textureAtlas_687189543_0_img": {
            "name": "textureAtlas_687189543_0_img",
            "uri": "textureAtlas_687189543_0.jpeg"
        }
    },
    "materials": {
        "default_ai_0.2_sh_0.2_tr_0.0_dc_r_0.8_g_0.8_b_0.8_sc_r_1.0_g_1.0_b_1.0_ec_r_0.0_g_0.0_b_0_eff": {
            "name": "default_ai_0.2_sh_0.2_tr_0.0_dc_r_0.8_g_0.8_b_0.8_sc_r_1.0_g_1.0_b_1.0_ec_r_0.0_g_0.0_b_0_mat",
            "technique": "technique0",
            "values": {
                "diffuse": [
                    0.8,
                    0.8,
                    0.8,
                    1
                ],
                "emission": [
                    0,
                    0,
                    0,
                    1
                ]
            }
        },
        "textureAtlas_687189543_0_eff": {
            "name": "textureAtlas_687189543_0_mat",
            "technique": "technique1",
            "values": {
                "diffuse": "texture_textureAtlas_687189543_0_img",
                "emission": [
                    0,
                    0,
                    0,
                    1
                ]
            }
        }
    },
    "meshes": {
        "geometry0": {
            "name": "geometry0",
            "primitives": [
                {
                    "attributes": {
                        "POSITION": "accessor_26",
                        "TEXCOORD_0": "accessor_28"
                    },
                    "indices": "accessor_21",
                    "material": "textureAtlas_687189543_0_eff",
                    "mode": 4
                },
                {
                    "attributes": {
                        "POSITION": "accessor_26"
                    },
                    "indices": "accessor_24",
                    "material": "default_ai_0.2_sh_0.2_tr_0.0_dc_r_0.8_g_0.8_b_0.8_sc_r_1.0_g_1.0_b_1.0_ec_r_0.0_g_0.0_b_0_eff",
                    "mode": 4
                }
            ]
        }
    },
    "nodes": {
        "node_0": {
            "children": [],
            "matrix": [
                1,
                0,
                0,
                0,
                0,
                1,
                0,
                0,
                0,
                0,
                1,
                0,
                0,
                0,
                0,
                1
            ],
            "meshes": [
                "geometry0"
            ],
            "name": ""
        },
        "node_1": {
            "children": [
                "node_0"
            ],
            "matrix": [
                1,
                0,
                0,
                0,
                0,
                0,
                -1,
                0,
                0,
                1,
                0,
                0,
                0,
                0,
                0,
                1
            ],
            "name": "Y_UP_Transform"
        }
    },
    "programs": {
        "program_0": {
            "attributes": [
                "a_position"
            ],
            "fragmentShader": "BLDG_00030009003f3f780FS",
            "vertexShader": "BLDG_00030009003f3f780VS"
        },
        "program_1": {
            "attributes": [
                "a_position",
                "a_texcoord0"
            ],
            "fragmentShader": "BLDG_00030009003f3f781FS",
            "vertexShader": "BLDG_00030009003f3f781VS"
        }
    },
    "samplers": {
        "sampler_0": {
            "magFilter": 9729,
            "minFilter": 9729,
            "wrapS": 10497,
            "wrapT": 10497
        }
    },
    "scene": "defaultScene",
    "scenes": {
        "defaultScene": {
            "nodes": [
                "node_1"
            ]
        }
    },
    "shaders": {
        "BLDG_00030009003f3f780FS": {
            "type": 35632,
            "uri": "data:text/plain;base64,"
        },
        "BLDG_00030009003f3f780VS": {
            "type": 35633,
            "uri": "data:text/plain;base64,"
        },
        "BLDG_00030009003f3f781FS": {
            "type": 35632,
            "uri": "data:text/plain;base64,"
        },
        "BLDG_00030009003f3f781VS": {
            "type": 35633,
            "uri": "data:text/plain;base64,"
        }
    },
    "skins": {},
    "techniques": {
        "technique0": {
            "attributes": {
                "a_position": "position"
            },
            "parameters": {
                "diffuse": {
                    "type": 35666
                },
                "emission": {
                    "type": 35666
                },
                "modelViewMatrix": {
                    "semantic": "MODELVIEW",
                    "type": 35676
                },
                "position": {
                    "semantic": "POSITION",
                    "type": 35665
                },
                "projectionMatrix": {
                    "semantic": "PROJECTION",
                    "type": 35676
                }
            },
            "program": "program_0",
            "states": {
                "enable": [
                    2929
                ]
            },
            "uniforms": {
                "u_diffuse": "diffuse",
                "u_emission": "emission",
                "u_modelViewMatrix": "modelViewMatrix",
                "u_projectionMatrix": "projectionMatrix"
            }
        },
        "technique1": {
            "attributes": {
                "a_position": "position",
                "a_texcoord0": "texcoord0"
            },
            "parameters": {
                "diffuse": {
                    "type": 35678
                },
                "emission": {
                    "type": 35666
                },
                "modelViewMatrix": {
                    "semantic": "MODELVIEW",
                    "type": 35676
                },
                "position": {
                    "semantic": "POSITION",
                    "type": 35665
                },
                "projectionMatrix": {
                    "semantic": "PROJECTION",
                    "type": 35676
                },
                "texcoord0": {
                    "semantic": "TEXCOORD_0",
                    "type": 35664
                }
            },
            "program": "program_1",
            "states": {
                "enable": [
                    2929
                ]
            },
            "uniforms": {
                "u_diffuse": "diffuse",
                "u_emission": "emission",
                "u_modelViewMatrix": "modelViewMatrix",
                "u_projectionMatrix": "projectionMatrix"
            }
        }
    },
    "textures": {
        "texture_textureAtlas_687189543_0_img": {
            "format": 6408,
            "internalFormat": 6408,
            "sampler": "sampler_0",
            "source": "textureAtlas_687189543_0_img",
            "target": 3553,
            "type": 5121
        }
    }
}