{
    "accessors": {
        "accessor_21": {
            "bufferView": "bufferView_30",
            "byteOffset": 0,
            "byteStride": 0,
            "componentType": 5123,
            "count": 42,
            "type": "SCALAR"
        },
        "accessor_24": {
            "bufferView": "bufferView_30",
            "byteOffset": 84,
            "byteStride": 0,
            "componentType": 5123,
            "count": 6,
            "type": "SCALAR"
        },
        "accessor_26": {
            "bufferView": "bufferView_31",
            "byteOffset": 0,
            "byteStride": 12,
            "componentType": 5126,
            "count": 30,
            "max": [
                3.24333,
                0.0005544,
                20.504
            ],
            "min": [
                -12.1229,
                -18.6148,
                0
            ],
            "type": "VEC3"
        },
        "accessor_28": {
            "bufferView": "bufferView_31",
            "byteOffset": 360,
            "byteStride": 8,
            "componentType": 5126,
            "count": 30,
            "max": [
                0.886046,
                1
            ],
            "min": [
                0,
                0.000385642
            ],
            "type": "VEC2"
        }
    },
    "animations": {},
    "asset": {
        "generator": "collada2gltf@cf6371beb0bdc18ba603378d5e40c966da53d385",
        "premultipliedAlpha": true,
        "profile": {
            "api": "WebGL",
            "version": "1.0.2"
        },
        "version": "1.0"
    },
    "bufferViews": {
        "bufferView_30": {
            "buffer": "BLDG_0003000200137868",
            "byteLength": 96,
            "byteOffset": 0,
            "target": 34963
        },
        "bufferView_31": {
            "buffer": "BLDG_0003000200137868",
            "byteLength": 600,
            "byteOffset": 96,
            "target": 34962
        }
    },
    "buffers": {
        "BLDG_0003000200137868": {
            "byteLength": 696,
            "type": "arraybuffer",
            "uri": "data:application/octet-stream;base64,"
        }
    },
    "images": {
        "textureAtlas_864371921_0_img": {
            "name": "textureAtlas_864371921_0_img",
            "uri": "textureAtlas_864371921_0.jpeg"
        }
    },
    "materials": {
        "default_ai_0.2_sh_0.2_tr_0.0_dc_r_0.8_g_0.8_b_0.8_sc_r_1.0_g_1.0_b_1.0_ec_r_0.0_g_0.0_b_0_eff": {
            "name": "default_ai_0.2_sh_0.2_tr_0.0_dc_r_0.8_g_0.8_b_0.8_sc_r_1.0_g_1.0_b_1.0_ec_r_0.0_g_0.0_b_0_mat",
            "technique": "technique0",
            "values": {
                "diffuse": [
                    0.8,
                    0.8,
                    0.8,
                    1
                ],
                "emission": [
                    0,
                    0,
                    0,
                    1
                ]
            }
        },
        "textureAtlas_864371921_0_eff": {
            "name": "textureAtlas_864371921_0_mat",
            "technique": "technique1",
            "values": {
                "diffuse": "texture_textureAtlas_864371921_0_img",
                "emission": [
                    0,
                    0,
                    0,
                    1
                ]
            }
        }
    },
    "meshes": {
        "geometry0": {
            "name": "geometry0",
            "primitives": [
                {
                    "attributes": {
                        "POSITION": "accessor_26",
                        "TEXCOORD_0": "accessor_28"
                    },
                    "indices": "accessor_21",
                    "material": "textureAtlas_864371921_0_eff",
                    "mode": 4
                },
                {
                    "attributes": {
                        "POSITION": "accessor_26"
                    },
                    "indices": "accessor_24",
                    "material": "default_ai_0.2_sh_0.2_tr_0.0_dc_r_0.8_g_0.8_b_0.8_sc_r_1.0_g_1.0_b_1.0_ec_r_0.0_g_0.0_b_0_eff",
                    "mode": 4
                }
            ]
        }
    },
    "nodes": {
        "node_0": {
            "children": [],
            "matrix": [
                1,
                0,
                0,
                0,
                0,
                1,
                0,
                0,
                0,
                0,
                1,
                0,
                0,
                0,
                0,
                1
            ],
            "meshes": [
                "geometry0"
            ],
            "name": ""
        },
        "node_1": {
            "children": [
                "node_0"
            ],
            "matrix": [
                1,
                0,
                0,
                0,
                0,
                0,
                -1,
                0,
                0,
                1,
                0,
                0,
                0,
                0,
                0,
                1
            ],
            "name": "Y_UP_Transform"
        }
    },
    "programs": {
        "program_0": {
            "attributes": [
                "a_position"
            ],
            "fragmentShader": "BLDG_00030002001378680FS",
            "vertexShader": "BLDG_00030002001378680VS"
        },
        "program_1": {
            "attributes": [
                "a_position",
                "a_texcoord0"
            ],
            "fragmentShader": "BLDG_00030002001378681FS",
            "vertexShader": "BLDG_00030002001378681VS"
        }
    },
    "samplers": {
        "sampler_0": {
            "magFilter": 9729,
            "minFilter": 9729,
            "wrapS": 10497,
            "wrapT": 10497
        }
    },
    "scene": "defaultScene",
    "scenes": {
        "defaultScene": {
            "nodes": [
                "node_1"
            ]
        }
    },
    "shaders": {
        "BLDG_00030002001378680FS": {
            "type": 35632,
            "uri": "data:text/plain;base64,"
        },
        "BLDG_00030002001378680VS": {
            "type": 35633,
            "uri": "data:text/plain;base64,"
        },
        "BLDG_00030002001378681FS": {
            "type": 35632,
            "uri": "data:text/plain;base64,"
        },
        "BLDG_00030002001378681VS": {
            "type": 35633,
            "uri": "data:text/plain;base64,"
        }
    },
    "skins": {},
    "techniques": {
        "technique0": {
            "attributes": {
                "a_position": "position"
            },
            "parameters": {
                "diffuse": {
                    "type": 35666
                },
                "emission": {
                    "type": 35666
                },
                "modelViewMatrix": {
                    "semantic": "MODELVIEW",
                    "type": 35676
                },
                "position": {
                    "semantic": "POSITION",
                    "type": 35665
                },
                "projectionMatrix": {
                    "semantic": "PROJECTION",
                    "type": 35676
                }
            },
            "program": "program_0",
            "states": {
                "enable": [
                    2929
                ]
            },
            "uniforms": {
                "u_diffuse": "diffuse",
                "u_emission": "emission",
                "u_modelViewMatrix": "modelViewMatrix",
                "u_projectionMatrix": "projectionMatrix"
            }
        },
        "technique1": {
            "attributes": {
                "a_position": "position",
                "a_texcoord0": "texcoord0"
            },
            "parameters": {
                "diffuse": {
                    "type": 35678
                },
                "emission": {
                    "type": 35666
                },
                "modelViewMatrix": {
                    "semantic": "MODELVIEW",
                    "type": 35676
                },
                "position": {
                    "semantic": "POSITION",
                    "type": 35665
                },
                "projectionMatrix": {
                    "semantic": "PROJECTION",
                    "type": 35676
                },
                "texcoord0": {
                    "semantic": "TEXCOORD_0",
                    "type": 35664
                }
            },
            "program": "program_1",
            "states": {
                "enable": [
                    2929
                ]
            },
            "uniforms": {
                "u_diffuse": "diffuse",
                "u_emission": "emission",
                "u_modelViewMatrix": "modelViewMatrix",
                "u_projectionMatrix": "projectionMatrix"
            }
        }
    },
    "textures": {
        "texture_textureAtlas_864371921_0_img": {
            "format": 6408,
            "internalFormat": 6408,
            "sampler": "sampler_0",
            "source": "textureAtlas_864371921_0_img",
            "target": 3553,
            "type": 5121
        }
    }
}