{
    "accessors": {
        "accessor_102": {
            "bufferView": "bufferView_114",
            "byteOffset": 3018,
            "byteStride": 0,
            "componentType": 5123,
            "count": 222,
            "type": "SCALAR"
        },
        "accessor_105": {
            "bufferView": "bufferView_114",
            "byteOffset": 3462,
            "byteStride": 0,
            "componentType": 5123,
            "count": 231,
            "type": "SCALAR"
        },
        "accessor_108": {
            "bufferView": "bufferView_114",
            "byteOffset": 3924,
            "byteStride": 0,
            "componentType": 5123,
            "count": 180,
            "type": "SCALAR"
        },
        "accessor_110": {
            "bufferView": "bufferView_115",
            "byteOffset": 0,
            "byteStride": 12,
            "componentType": 5126,
            "count": 966,
            "max": [
                116.36,
                23.8508,
                36.6
            ],
            "min": [
                -137.229,
                -183.417,
                0
            ],
            "type": "VEC3"
        },
        "accessor_112": {
            "bufferView": "bufferView_115",
            "byteOffset": 11592,
            "byteStride": 8,
            "componentType": 5126,
            "count": 966,
            "max": [
                0.999892,
                1
            ],
            "min": [
                0,
                6.55651e-006
            ],
            "type": "VEC2"
        },
        "accessor_87": {
            "bufferView": "bufferView_114",
            "byteOffset": 0,
            "byteStride": 0,
            "componentType": 5123,
            "count": 102,
            "type": "SCALAR"
        },
        "accessor_90": {
            "bufferView": "bufferView_114",
            "byteOffset": 204,
            "byteStride": 0,
            "componentType": 5123,
            "count": 693,
            "type": "SCALAR"
        },
        "accessor_93": {
            "bufferView": "bufferView_114",
            "byteOffset": 1590,
            "byteStride": 0,
            "componentType": 5123,
            "count": 129,
            "type": "SCALAR"
        },
        "accessor_96": {
            "bufferView": "bufferView_114",
            "byteOffset": 1848,
            "byteStride": 0,
            "componentType": 5123,
            "count": 156,
            "type": "SCALAR"
        },
        "accessor_99": {
            "bufferView": "bufferView_114",
            "byteOffset": 2160,
            "byteStride": 0,
            "componentType": 5123,
            "count": 429,
            "type": "SCALAR"
        }
    },
    "animations": {},
    "asset": {
        "generator": "collada2gltf@cf6371beb0bdc18ba603378d5e40c966da53d385",
        "premultipliedAlpha": true,
        "profile": {
            "api": "WebGL",
            "version": "1.0.2"
        },
        "version": "1.0"
    },
    "bufferViews": {
        "bufferView_114": {
            "buffer": "BLDG_00030000001ebd92",
            "byteLength": 4284,
            "byteOffset": 0,
            "target": 34963
        },
        "bufferView_115": {
            "buffer": "BLDG_00030000001ebd92",
            "byteLength": 19320,
            "byteOffset": 4284,
            "target": 34962
        }
    },
    "buffers": {
        "BLDG_00030000001ebd92": {
            "byteLength": 23604,
            "type": "arraybuffer",
            "uri": "data:application/octet-stream;base64,"
        }
    },
    "images": {
        "textureAtlas_1740391433_0_img": {
            "name": "textureAtlas_1740391433_0_img",
            "uri": "textureAtlas_1740391433_0.jpeg"
        },
        "textureAtlas_1740391433_1_img": {
            "name": "textureAtlas_1740391433_1_img",
            "uri": "textureAtlas_1740391433_1.jpeg"
        },
        "textureAtlas_1740391433_2_img": {
            "name": "textureAtlas_1740391433_2_img",
            "uri": "textureAtlas_1740391433_2.jpeg"
        },
        "textureAtlas_1740391433_3_img": {
            "name": "textureAtlas_1740391433_3_img",
            "uri": "textureAtlas_1740391433_3.jpeg"
        },
        "textureAtlas_1740391433_4_img": {
            "name": "textureAtlas_1740391433_4_img",
            "uri": "textureAtlas_1740391433_4.jpeg"
        },
        "textureAtlas_1740391433_5_img": {
            "name": "textureAtlas_1740391433_5_img",
            "uri": "textureAtlas_1740391433_5.jpeg"
        },
        "textureAtlas_1740391433_6_img": {
            "name": "textureAtlas_1740391433_6_img",
            "uri": "textureAtlas_1740391433_6.jpeg"
        }
    },
    "materials": {
        "default_ai_0.2_sh_0.2_tr_0.0_dc_r_0.8_g_0.8_b_0.8_sc_r_1.0_g_1.0_b_1.0_ec_r_0.0_g_0.0_b_0_eff": {
            "name": "default_ai_0.2_sh_0.2_tr_0.0_dc_r_0.8_g_0.8_b_0.8_sc_r_1.0_g_1.0_b_1.0_ec_r_0.0_g_0.0_b_0_mat",
            "technique": "technique0",
            "values": {
                "diffuse": [
                    0.8,
                    0.8,
                    0.8,
                    1
                ],
                "emission": [
                    0,
                    0,
                    0,
                    1
                ]
            }
        },
        "textureAtlas_1740391433_0_eff": {
            "name": "textureAtlas_1740391433_0_mat",
            "technique": "technique1",
            "values": {
                "diffuse": "texture_textureAtlas_1740391433_0_img",
                "emission": [
                    0,
                    0,
                    0,
                    1
                ]
            }
        },
        "textureAtlas_1740391433_1_eff": {
            "name": "textureAtlas_1740391433_1_mat",
            "technique": "technique1",
            "values": {
                "diffuse": "texture_textureAtlas_1740391433_1_img",
                "emission": [
                    0,
                    0,
                    0,
                    1
                ]
            }
        },
        "textureAtlas_1740391433_2_eff": {
            "name": "textureAtlas_1740391433_2_mat",
            "technique": "technique1",
            "values": {
                "diffuse": "texture_textureAtlas_1740391433_2_img",
                "emission": [
                    0,
                    0,
                    0,
                    1
                ]
            }
        },
        "textureAtlas_1740391433_3_eff": {
            "name": "textureAtlas_1740391433_3_mat",
            "technique": "technique1",
            "values": {
                "diffuse": "texture_textureAtlas_1740391433_3_img",
                "emission": [
                    0,
                    0,
                    0,
                    1
                ]
            }
        },
        "textureAtlas_1740391433_4_eff": {
            "name": "textureAtlas_1740391433_4_mat",
            "technique": "technique1",
            "values": {
                "diffuse": "texture_textureAtlas_1740391433_4_img",
                "emission": [
                    0,
                    0,
                    0,
                    1
                ]
            }
        },
        "textureAtlas_1740391433_5_eff": {
            "name": "textureAtlas_1740391433_5_mat",
            "technique": "technique1",
            "values": {
                "diffuse": "texture_textureAtlas_1740391433_5_img",
                "emission": [
                    0,
                    0,
                    0,
                    1
                ]
            }
        },
        "textureAtlas_1740391433_6_eff": {
            "name": "textureAtlas_1740391433_6_mat",
            "technique": "technique1",
            "values": {
                "diffuse": "texture_textureAtlas_1740391433_6_img",
                "emission": [
                    0,
                    0,
                    0,
                    1
                ]
            }
        }
    },
    "meshes": {
        "geometry0": {
            "name": "geometry0",
            "primitives": [
                {
                    "attributes": {
                        "POSITION": "accessor_110",
                        "TEXCOORD_0": "accessor_112"
                    },
                    "indices": "accessor_87",
                    "material": "textureAtlas_1740391433_1_eff",
                    "mode": 4
                },
                {
                    "attributes": {
                        "POSITION": "accessor_110",
                        "TEXCOORD_0": "accessor_112"
                    },
                    "indices": "accessor_90",
                    "material": "textureAtlas_1740391433_6_eff",
                    "mode": 4
                },
                {
                    "attributes": {
                        "POSITION": "accessor_110",
                        "TEXCOORD_0": "accessor_112"
                    },
                    "indices": "accessor_93",
                    "material": "textureAtlas_1740391433_3_eff",
                    "mode": 4
                },
                {
                    "attributes": {
                        "POSITION": "accessor_110",
                        "TEXCOORD_0": "accessor_112"
                    },
                    "indices": "accessor_96",
                    "material": "textureAtlas_1740391433_4_eff",
                    "mode": 4
                },
                {
                    "attributes": {
                        "POSITION": "accessor_110",
                        "TEXCOORD_0": "accessor_112"
                    },
                    "indices": "accessor_99",
                    "material": "textureAtlas_1740391433_0_eff",
                    "mode": 4
                },
                {
                    "attributes": {
                        "POSITION": "accessor_110",
                        "TEXCOORD_0": "accessor_112"
                    },
                    "indices": "accessor_102",
                    "material": "textureAtlas_1740391433_5_eff",
                    "mode": 4
                },
                {
                    "attributes": {
                        "POSITION": "accessor_110",
                        "TEXCOORD_0": "accessor_112"
                    },
                    "indices": "accessor_105",
                    "material": "textureAtlas_1740391433_2_eff",
                    "mode": 4
                },
                {
                    "attributes": {
                        "POSITION": "accessor_110"
                    },
                    "indices": "accessor_108",
                    "material": "default_ai_0.2_sh_0.2_tr_0.0_dc_r_0.8_g_0.8_b_0.8_sc_r_1.0_g_1.0_b_1.0_ec_r_0.0_g_0.0_b_0_eff",
                    "mode": 4
                }
            ]
        }
    },
    "nodes": {
        "node_0": {
            "children": [],
            "matrix": [
                1,
                0,
                0,
                0,
                0,
                1,
                0,
                0,
                0,
                0,
                1,
                0,
                0,
                0,
                0,
                1
            ],
            "meshes": [
                "geometry0"
            ],
            "name": ""
        },
        "node_1": {
            "children": [
                "node_0"
            ],
            "matrix": [
                1,
                0,
                0,
                0,
                0,
                0,
                -1,
                0,
                0,
                1,
                0,
                0,
                0,
                0,
                0,
                1
            ],
            "name": "Y_UP_Transform"
        }
    },
    "programs": {
        "program_0": {
            "attributes": [
                "a_position"
            ],
            "fragmentShader": "BLDG_00030000001ebd920FS",
            "vertexShader": "BLDG_00030000001ebd920VS"
        },
        "program_1": {
            "attributes": [
                "a_position",
                "a_texcoord0"
            ],
            "fragmentShader": "BLDG_00030000001ebd921FS",
            "vertexShader": "BLDG_00030000001ebd921VS"
        }
    },
    "samplers": {
        "sampler_0": {
            "magFilter": 9729,
            "minFilter": 9729,
            "wrapS": 10497,
            "wrapT": 10497
        }
    },
    "scene": "defaultScene",
    "scenes": {
        "defaultScene": {
            "nodes": [
                "node_1"
            ]
        }
    },
    "shaders": {
        "BLDG_00030000001ebd920FS": {
            "type": 35632,
            "uri": "data:text/plain;base64,"
        },
        "BLDG_00030000001ebd920VS": {
            "type": 35633,
            "uri": "data:text/plain;base64,"
        },
        "BLDG_00030000001ebd921FS": {
            "type": 35632,
            "uri": "data:text/plain;base64,"
        },
        "BLDG_00030000001ebd921VS": {
            "type": 35633,
            "uri": "data:text/plain;base64,"
        }
    },
    "skins": {},
    "techniques": {
        "technique0": {
            "attributes": {
                "a_position": "position"
            },
            "parameters": {
                "diffuse": {
                    "type": 35666
                },
                "emission": {
                    "type": 35666
                },
                "modelViewMatrix": {
                    "semantic": "MODELVIEW",
                    "type": 35676
                },
                "position": {
                    "semantic": "POSITION",
                    "type": 35665
                },
                "projectionMatrix": {
                    "semantic": "PROJECTION",
                    "type": 35676
                }
            },
            "program": "program_0",
            "states": {
                "enable": [
                    2929
                ]
            },
            "uniforms": {
                "u_diffuse": "diffuse",
                "u_emission": "emission",
                "u_modelViewMatrix": "modelViewMatrix",
                "u_projectionMatrix": "projectionMatrix"
            }
        },
        "technique1": {
            "attributes": {
                "a_position": "position",
                "a_texcoord0": "texcoord0"
            },
            "parameters": {
                "diffuse": {
                    "type": 35678
                },
                "emission": {
                    "type": 35666
                },
                "modelViewMatrix": {
                    "semantic": "MODELVIEW",
                    "type": 35676
                },
                "position": {
                    "semantic": "POSITION",
                    "type": 35665
                },
                "projectionMatrix": {
                    "semantic": "PROJECTION",
                    "type": 35676
                },
                "texcoord0": {
                    "semantic": "TEXCOORD_0",
                    "type": 35664
                }
            },
            "program": "program_1",
            "states": {
                "enable": [
                    2929
                ]
            },
            "uniforms": {
                "u_diffuse": "diffuse",
                "u_emission": "emission",
                "u_modelViewMatrix": "modelViewMatrix",
                "u_projectionMatrix": "projectionMatrix"
            }
        }
    },
    "textures": {
        "texture_textureAtlas_1740391433_0_img": {
            "format": 6408,
            "internalFormat": 6408,
            "sampler": "sampler_0",
            "source": "textureAtlas_1740391433_0_img",
            "target": 3553,
            "type": 5121
        },
        "texture_textureAtlas_1740391433_1_img": {
            "format": 6408,
            "internalFormat": 6408,
            "sampler": "sampler_0",
            "source": "textureAtlas_1740391433_1_img",
            "target": 3553,
            "type": 5121
        },
        "texture_textureAtlas_1740391433_2_img": {
            "format": 6408,
            "internalFormat": 6408,
            "sampler": "sampler_0",
            "source": "textureAtlas_1740391433_2_img",
            "target": 3553,
            "type": 5121
        },
        "texture_textureAtlas_1740391433_3_img": {
            "format": 6408,
            "internalFormat": 6408,
            "sampler": "sampler_0",
            "source": "textureAtlas_1740391433_3_img",
            "target": 3553,
            "type": 5121
        },
        "texture_textureAtlas_1740391433_4_img": {
            "format": 6408,
            "internalFormat": 6408,
            "sampler": "sampler_0",
            "source": "textureAtlas_1740391433_4_img",
            "target": 3553,
            "type": 5121
        },
        "texture_textureAtlas_1740391433_5_img": {
            "format": 6408,
            "internalFormat": 6408,
            "sampler": "sampler_0",
            "source": "textureAtlas_1740391433_5_img",
            "target": 3553,
            "type": 5121
        },
        "texture_textureAtlas_1740391433_6_img": {
            "format": 6408,
            "internalFormat": 6408,
            "sampler": "sampler_0",
            "source": "textureAtlas_1740391433_6_img",
            "target": 3553,
            "type": 5121
        }
    }
}